<svg width="171" height="32" viewBox="0 0 342 64" fill="none" xmlns="http://www.w3.org/2000/svg">
<path d="M12.2782 52.8035C7.1618 52.8035 3 48.6376 3 43.5162L3 33.9847C3 30.1695 0.29008 26.6859 8.94758 20.2173L13.3593 23.6182C14.2969 23.2575 14.9925 22.4527 15.2144 21.473L16.5966 10.2859C18.2529 8.09314 24.6271 2.99983 32.0985 2.99983H70.0546C78.8199 2.99983 85.9996 10.1379 85.9996 18.9118V43.5162C85.9996 48.6376 81.79 52.8035 76.6746 52.8035L12.2782 52.8035Z" fill="white"/>
<path d="M30.4751 44.4749C26.0634 44.4749 22.4746 48.0644 22.4746 52.4749C22.4746 56.8854 26.0634 60.4749 30.4751 60.4749C34.8859 60.4749 38.4746 56.8854 38.4746 52.4749C38.4746 48.0644 34.8859 44.4749 30.4751 44.4749Z" fill="#FF5B14"/>
<path d="M65.4751 44.4749C61.0634 44.4749 57.4746 48.0644 57.4746 52.4749C57.4746 56.8854 61.0634 60.4749 65.4751 60.4749C69.8859 60.4749 73.4746 56.8854 73.4746 52.4749C73.4746 48.0644 69.8859 44.4749 65.4751 44.4749Z" fill="#FF5B14"/>
<path fill-rule="evenodd" clip-rule="evenodd" d="M0 43.5163C0 50.2918 5.50218 55.8036 12.2782 55.8036H19.4836C20.9066 60.5392 20.2069 64 30.5007 64C35.6933 64 40.0934 60.5392 41.5164 55.8036H54.4836C55.9066 60.5392 60.3069 64 65.5007 64C70.6933 64 75.0935 60.5392 76.5164 55.8036H76.6746C83.4298 55.8036 88.9996 50.3116 88.9996 43.5163V18.9119C88.9996 8.47206 80.4676 0 70.0546 0H32.0985C23.2242 0 15.6372 6.06484 13.6711 14.7217L12.2885 20.8106L12.2879 20.8124L12.2875 20.8133C12.2875 20.8133 12.2866 20.8148 12.2859 20.8157L12.2846 20.817L12.284 20.8175C12.284 20.8175 12.2832 20.818 12.2821 20.8185L12.2811 20.8188L7.87047 22.5175L7.86939 22.5179C3.15221 24.3331 0 28.9307 0 33.9848V43.5163ZM60 52.5C60 51.521 60.2572 50.6009 60.7076 49.8036C61.6521 48.1315 63.4465 47 65.5003 47C67.5537 47 69.3479 48.1315 70.2925 49.8036C70.7428 50.6009 71 51.521 71 52.5C71 53.7386 70.5883 54.8831 69.8945 55.8036C68.89 57.1366 67.294 58 65.5003 58C63.7063 58 62.1101 57.1366 61.1055 55.8036C60.4117 54.8831 60 53.7386 60 52.5ZM65.5007 41C70.9129 41 75.4641 44.7596 76.6807 49.8036C80.1536 49.8003 82.9996 46.9618 82.9996 43.5163V18.9119C82.9996 11.8041 77.1722 6 70.0546 6H32.0985C26.0301 6 20.8687 10.1218 19.5221 16.0505L18.1403 22.1357L18.1401 22.1365L18.1399 22.1375C17.6968 24.0915 16.309 25.6975 14.4375 26.4179L14.4366 26.4183L10.0258 28.117L10.0247 28.1175C7.62746 29.0396 6 31.409 6 33.9848V43.5163C6 46.9837 8.82142 49.8036 12.2782 49.8036H19.3193C20.536 44.7596 25.0873 41 30.5007 41C35.9129 41 40.4641 44.7596 41.6807 49.8036H54.3193C55.536 44.7596 60.0873 41 65.5007 41ZM25.7076 49.8036C25.2572 50.6009 25 51.521 25 52.5C25 53.7386 25.4117 54.8831 26.1055 55.8036C27.1101 57.1366 28.7063 58 30.5003 58C32.294 58 33.89 57.1366 34.8945 55.8036C35.5883 54.8831 36 53.7386 36 52.5C36 51.521 35.7428 50.6009 35.2925 49.8036C34.3479 48.1315 32.5537 47 30.5003 47C28.4465 47 26.6521 48.1315 25.7076 49.8036ZM36.0005 15C38.2088 15 40 16.7915 40 19C40 21.2095 38.2088 23 36.0005 23C33.7912 23 32 21.2095 32 19C32 16.7915 33.7912 15 36.0005 15ZM55 19C55 16.7905 56.7902 15 58.9995 15C61.2088 15 63 16.7905 63 19C63 21.2095 61.2088 23 58.9995 23C56.7902 23 55 21.2095 55 19ZM57.8717 27.2693C56.4653 26.5936 54.8032 27.2333 54.1559 28.6985C52.9594 31.407 50.3459 33.1561 47.5 33.1561C44.6532 33.1561 42.0406 31.407 40.8441 28.6985C40.1958 27.2333 38.5328 26.5946 37.1283 27.2683C35.7239 27.9439 35.1106 29.68 35.7579 31.1452C37.866 35.9166 42.475 39 47.5 39C52.524 39 57.133 35.9166 59.2421 31.1452C59.8895 29.68 59.2761 27.9439 57.8717 27.2693Z" fill="black"/>
<path fill-rule="evenodd" clip-rule="evenodd" d="M115.25 49.8774H114.894C112.943 49.8774 111.645 48.5847 110.817 46.6137L100.414 21.7968C100.236 21.2426 100 20.627 100 19.9488C100 18.1018 101.597 16.3778 103.547 16.3778C105.497 16.3778 106.502 17.5487 107.092 19.0873L115.131 40.6405L123.288 18.9644C123.82 17.6716 124.766 16.3778 126.657 16.3778C128.608 16.3778 130.146 17.9164 130.146 19.9488C130.146 20.627 129.909 21.3666 129.731 21.7343L119.328 46.6137C118.501 48.5221 117.201 49.8774 115.25 49.8774Z" fill="black"/>
<path fill-rule="evenodd" clip-rule="evenodd" d="M159.791 33.1872V33.0643C159.791 27.3369 155.832 22.595 150.217 22.595C144.482 22.595 140.818 27.2754 140.818 32.9403V33.0643C140.818 38.7291 144.778 43.47 150.334 43.47C156.127 43.47 159.791 38.7906 159.791 33.1872ZM133.668 33.1886V33.0657C133.668 23.7662 140.76 16.069 150.335 16.069C159.911 16.069 166.944 23.6422 166.944 32.9417V33.0657C166.944 42.3015 159.852 49.9999 150.218 49.9999C140.702 49.9999 133.668 42.4244 133.668 33.1886Z" fill="black"/>
<path fill-rule="evenodd" clip-rule="evenodd" d="M174.623 7.69499C174.623 5.66258 176.158 4 178.169 4C180.178 4 181.774 5.66258 181.774 7.69499V45.874C181.774 47.9689 180.178 49.569 178.169 49.569C176.218 49.569 174.623 47.9689 174.623 45.874V7.69499Z" fill="black"/>
<path fill-rule="evenodd" clip-rule="evenodd" d="M192.596 40.2701V23.1516H191.413C189.699 23.1516 188.34 21.7348 188.34 19.9482C188.34 18.1627 189.699 16.7471 191.413 16.7471H192.596V11.2051C192.596 9.17271 194.192 7.51013 196.2 7.51013C198.151 7.51013 199.748 9.17271 199.748 11.2051V16.7471H200.263C207.077 16.7471 208.495 18.1627 208.495 19.9482C208.495 21.7348 207.077 23.1516 200.263 23.1516H199.748V39.1003C199.748 41.9952 201.166 43.1651 203.59 43.1651C204.417 43.1651 205.126 42.9807 200.263 42.9807C206.958 42.9807 208.377 44.3349 208.377 46.0589C208.377 47.4132 207.491 48.5215 206.486 48.9539C204.949 49.507 203.472 49.8154 201.58 49.8154C196.32 49.8154 192.596 47.4132 192.596 40.2701Z" fill="black"/>
<path fill-rule="evenodd" clip-rule="evenodd" d="M214.474 7.69499C214.474 5.66258 216.011 4 218.021 4C220.029 4 221.626 5.66258 221.626 7.69499V45.874C221.626 47.9689 220.029 49.569 218.021 49.569C216.07 49.569 214.474 47.9689 214.474 45.874V7.69499Z" fill="white"/>
<path fill-rule="evenodd" clip-rule="evenodd" d="M231.368 20.1326C231.368 18.0387 232.905 16.3761 234.915 16.3761C236.924 16.3761 238.52 18.0387 238.52 20.1326V45.8724C238.52 47.9662 236.924 49.5674 234.915 49.5674C232.964 49.5674 231.368 47.9662 231.368 45.8724V20.1326ZM230.839 8.00098C230.839 5.7842 232.612 4.36853 234.917 4.36853C237.222 4.36853 238.996 5.7842 238.996 8.00098V8.3708C238.996 10.5876 237.222 12.0658 234.917 12.0658C232.612 12.0658 230.839 10.5876 230.839 8.3708V8.00098Z" fill="white"/>
<path fill-rule="evenodd" clip-rule="evenodd" d="M247.869 20.134C247.869 18.0402 249.405 16.3776 251.416 16.3776C253.424 16.3776 255.02 18.0402 255.02 20.134V21.7341C257.031 18.7183 259.927 16.0692 264.773 16.0692C271.807 16.0692 275.885 20.9966 275.885 28.5095V45.8738C275.885 47.9677 274.349 49.5688 272.339 49.5688C270.33 49.5688 268.734 47.9677 268.734 45.8738V30.7877C268.734 25.7374 266.31 22.8435 262.055 22.8435C257.917 22.8435 255.02 25.8614 255.02 30.9106V45.8738C255.02 47.9677 253.424 49.5688 251.416 49.5688C249.465 49.5688 247.869 47.9677 247.869 45.8738V20.134Z" fill="white"/>
<path fill-rule="evenodd" clip-rule="evenodd" d="M305.912 30.725C305.439 25.9216 302.72 22.1663 297.992 22.1663C293.617 22.1663 290.544 25.6747 289.894 30.725H305.912ZM298.815 50C289.772 50 282.798 43.1642 282.798 33.1273V33.0033C282.798 23.7049 289.122 16.0691 298.047 16.0691C307.977 16.0691 312.882 24.5674 312.882 32.0803C312.882 34.1731 311.347 35.6513 309.514 35.6513H289.949C290.718 40.9474 294.324 43.9039 298.934 43.9039C301.949 43.9039 304.312 42.7944 306.322 41.0714C306.854 40.6391 307.327 40.3932 308.155 40.3932C309.751 40.3932 310.992 41.686 310.992 43.4111C310.992 44.3341 310.578 45.1352 310.046 45.6894C307.209 48.3374 303.662 50 298.815 50Z" fill="white"/>
<path fill-rule="evenodd" clip-rule="evenodd" d="M318.534 45.9964C317.766 45.5662 317.175 44.6422 317.175 43.4109C317.175 41.7483 318.416 40.393 320.071 40.393C320.663 40.393 321.194 40.5785 321.608 40.8243C324.622 42.9181 327.755 43.964 330.592 43.964C333.665 43.964 335.439 42.6098 335.439 40.4545V40.3316C335.439 37.8064 332.13 36.9439 328.465 35.7751C323.855 34.4198 318.712 32.4499 318.712 26.2298V26.1069C318.712 19.9482 323.618 16.1918 329.824 16.1918C333.133 16.1918 336.621 17.1772 339.636 18.8398C340.64 19.394 341.35 20.3795 341.35 21.6723C341.35 23.3974 340.049 24.6901 338.394 24.6901C337.803 24.6901 337.448 24.5672 336.975 24.3203C334.433 22.9661 331.834 22.1035 329.646 22.1035C326.868 22.1035 325.272 23.4588 325.272 20.2069V25.4298C325.272 27.8298 328.642 28.8153 332.307 30.0477C336.857 31.5248 341.999 33.6801 341.999 39.5304V39.6534C341.999 46.4891 336.917 49.8768 330.414 49.8768C326.454 49.8768 322.14 48.583 318.534 45.9964Z" fill="white"/>
</svg>
