<svg xmlns="http://www.w3.org/2000/svg" width="24" height="24" fill="currentColor" class="icon-bell-solid" viewBox="0 0 24 24">
  <path d="M12 2c.664 0 1.25.586 1.25 1.25v.781c2.852.547 5 3.086 5 6.094v.742c0 1.836.664 3.633 1.875 5l.273.313c.352.39.43.898.235 1.367-.196.43-.664.703-1.133.703h-15c-.508 0-.977-.273-1.172-.703a1.26 1.26 0 0 1 .234-1.367l.274-.313a7.6 7.6 0 0 0 1.914-5v-.742c0-3.008 2.148-5.547 5-6.094V3.25c0-.664.547-1.25 1.25-1.25m1.758 19.297c-.469.469-1.094.703-1.758.703s-1.328-.234-1.797-.703S9.5 20.164 9.5 19.5h5a2.58 2.58 0 0 1-.742 1.797"/>
</svg>