<svg xmlns="http://www.w3.org/2000/svg" width="24" height="24" fill="currentColor" class="icon-home-solid" viewBox="0 0 24 24">
  <path d="M23.71 12c0 .703-.585 1.25-1.25 1.25h-1.25l.04 6.25v.938c0 .898-.703 1.562-1.562 1.562h-3.125C15.664 22 15 21.336 15 20.438V17c0-.664-.586-1.25-1.25-1.25h-2.5c-.703 0-1.25.586-1.25 1.25v3.438C10 21.336 9.297 22 8.438 22H5.313c-.899 0-1.563-.664-1.563-1.562V13.25H2.5c-.703 0-1.25-.547-1.25-1.25 0-.352.117-.664.39-.937l10-8.75c.274-.274.587-.313.86-.313s.586.078.82.273l9.961 8.79c.313.273.469.585.43.937"/>
</svg>