<svg xmlns="http://www.w3.org/2000/svg" width="24" height="24" fill="currentColor" class="icon-person-walking-briefcase-outline" viewBox="0 0 24 24">
  <path d="M14.292 5.745a1.874 1.874 0 0 0 1.875-1.872c0-1.015-.86-1.873-1.875-1.873a1.874 1.874 0 0 0-1.875 1.873 1.85 1.85 0 0 0 1.875 1.872"/>
  <path fill-rule="evenodd" d="m9.917 9.686.82-.39-.82 2.536c-.313.858-.04 1.794.703 2.38l4.062 3.316.86 3.745a.942.942 0 0 0 1.836-.429l-.899-3.862a1.7 1.7 0 0 0-.547-.859l-1.953-1.56 1.172-3.668.352 1.249a1.7 1.7 0 0 0 .39.624l1.172 1.131c.352.39.938.39 1.29 0a.9.9 0 0 0 .232-.33h.262v.75h-2.865v-.75h.739l-.775-.748c-.45.018-.823.368-.823.748v.61l.026.117 1.313 1.186.01.01c.314.268.565.613.717.99a2 2 0 0 1 .097.298l.001.006.82 3.525h3.032c.447 0 .859-.343.859-.75v-4.494c0-.39-.412-.749-.86-.749h-1.432v-.749c0-.39-.411-.749-.859-.749h-.31a1 1 0 0 0-.185-.247L17.3 11.52l-.47-1.444a4.31 4.31 0 0 0-4.14-3.082c-.937 0-1.875.234-2.734.624l-.82.351a4.75 4.75 0 0 0-2.54 2.81l-.078.311c-.156.469.078 1.015.586 1.17.469.157 1.016-.077 1.172-.584l.117-.312a2.7 2.7 0 0 1 1.524-1.678m1.758 2.73 1.171-3.51c.313 0 .625.078.899.195-.04.039-.04.078-.04.117l-1.288 4.057-.625-.507a.31.31 0 0 1-.117-.351"/>
  <path d="m10.034 15.382-.938 2.34-2.656 2.654c-.39.39-.39.975 0 1.326.352.39.938.39 1.29 0l2.734-2.692c.156-.156.273-.35.351-.546l.742-1.873zm3.9 2.61-1.1-.899v2.469c0 .406.393.749.859.749h.773z"/>
</svg>