<svg xmlns="http://www.w3.org/2000/svg" width="24" height="24" fill="currentColor" class="icon-road-outline-1" viewBox="0 0 24 24">
  <path d="M8.477 3.25h8.008c1.171 0 2.226.742 2.656 1.875L23.399 17c.664 1.836-.704 3.75-2.657 3.75H4.22C2.267 20.75.9 18.836 1.564 17L5.859 5.125A2.77 2.77 0 0 1 8.477 3.25m-.86 2.5L3.32 17.625c-.195.625.235 1.25.899 1.25h7.344v-.937c0-.508.39-.938.937-.938a.95.95 0 0 1 .938.938v.937h7.304c.664 0 1.094-.625.899-1.25L17.344 5.75a.93.93 0 0 0-.86-.625h-3.046v.938c0 .546-.43.937-.938.937-.547 0-.937-.39-.937-.937v-.938H8.477a.93.93 0 0 0-.86.625m5.82 4.688v3.124c0 .547-.43.938-.937.938-.547 0-.937-.39-.937-.937v-3.126c0-.507.39-.937.937-.937a.95.95 0 0 1 .938.938"/>
</svg>