<svg xmlns="http://www.w3.org/2000/svg" width="24" height="24" fill="currentColor" class="icon-shield-check-outline" viewBox="0 0 24 24">
  <path d="M4.851 6.96c-.234.118-.351.313-.351.509 0 3.593 1.484 9.726 7.266 12.5a.42.42 0 0 0 .43 0c5.78-2.735 7.265-8.907 7.304-12.5 0-.196-.156-.39-.352-.508L12 3.953zm15-1.718c.86.39 1.524 1.211 1.524 2.227-.04 3.906-1.64 10.976-8.36 14.218a2.4 2.4 0 0 1-2.07 0c-6.719-3.242-8.32-10.312-8.32-14.218-.04-1.016.625-1.836 1.484-2.227l7.344-3.125a1.25 1.25 0 0 1 1.055 0zm-3.437 4.922-5 5c-.39.39-.977.39-1.328 0l-2.5-2.5a.856.856 0 0 1 0-1.289c.351-.39.937-.39 1.328 0l1.836 1.836 4.336-4.336c.351-.39.937-.39 1.328 0a.92.92 0 0 1 0 1.29"/>
</svg>