<svg xmlns="http://www.w3.org/2000/svg" width="24" height="24" fill="currentColor" class="icon-split-solid" viewBox="0 0 24 24">
  <path d="M17.742 3.367a1.26 1.26 0 0 1 1.367.274l2.5 2.5c.235.234.391.547.391.86 0 .35-.156.663-.39.898l-2.5 2.5a1.26 1.26 0 0 1-1.368.273C17.273 10.477 17 10.008 17 9.5V8.25h-1.484c-.313 0-.664.156-.899.39L11.257 12l3.36 3.399c.235.234.586.351.899.351H17V14.5c0-.469.273-.937.742-1.133a1.26 1.26 0 0 1 1.367.274l2.5 2.5c.235.234.391.547.391.86 0 .35-.156.663-.39.897l-2.5 2.5a1.26 1.26 0 0 1-1.368.274c-.469-.195-.742-.664-.742-1.172v-1.25h-1.484c-.977 0-1.953-.39-2.657-1.094L8.953 13.25H3.25C2.547 13.25 2 12.703 2 12c0-.664.547-1.25 1.25-1.25h5.703l3.906-3.867c.704-.703 1.68-1.133 2.657-1.133H17V4.5c0-.469.273-.937.742-1.133"/>
</svg>