<svg xmlns="http://www.w3.org/2000/svg" width="24" height="24" fill="currentColor" class="icon-ticket-alt-solid" viewBox="0 0 24 24">
  <path d="m1.571 12.929 11-11c.859-.86 2.319-.824 3.22.079l1.65 1.65c.233.232.217.609.098.882a1.73 1.73 0 0 0 .374 1.946c.542.541 1.325.686 1.972.4.274-.119.65-.135.857.071l1.65 1.65c.928.928.938 2.362.078 3.222l-11 11c-.883.883-2.292.849-3.22-.08L6.6 21.1c-.207-.206-.215-.558-.096-.832a1.81 1.81 0 0 0-.376-1.996c-.541-.541-1.323-.636-1.97-.35-.274.12-.626.11-.858-.121l-1.65-1.65c-.902-.902-.963-2.337-.079-3.221m4.459 1.316c-.206-.207-.24-.585-.02-.806l7.071-7.07c.197-.197.6-.187.806.019l4.125 4.125c.232.232.215.608.02.805L10.96 18.39c-.22.221-.573.212-.805-.02zm-1.198.373 4.95 4.95c.464.464 1.168.48 1.61.039l7.857-7.857c.417-.417.425-1.146-.04-1.61l-4.95-4.95c-.437-.439-1.192-.457-1.61-.04l-7.856 7.857c-.442.442-.4 1.173.039 1.61"/>
</svg>