<svg xmlns="http://www.w3.org/2000/svg" width="24" height="24" fill="currentColor" class="icon-trip-outbound-outline" viewBox="0 0 24 24">
  <path fill-rule="evenodd" d="M9 2H2v2.5h1a.5.5 0 0 1 .5.5v2a.5.5 0 0 1-.5.5H2v2h1a.5.5 0 0 1 .5.5v2a.5.5 0 0 1-.5.5H2v2h1a.5.5 0 0 1 .5.5v2a.5.5 0 0 1-.5.5H2V22h8V3a1 1 0 0 0-1-1M5 5a.5.5 0 0 1 .5-.5H7a.5.5 0 0 1 .5.5v2a.5.5 0 0 1-.5.5H5.5A.5.5 0 0 1 5 7zm.5 4.5a.5.5 0 0 0-.5.5v2a.5.5 0 0 0 .5.5H7a.5.5 0 0 0 .5-.5v-2a.5.5 0 0 0-.5-.5zM5 15a.5.5 0 0 1 .5-.5H7a.5.5 0 0 1 .5.5v2a.5.5 0 0 1-.5.5H5.5A.5.5 0 0 1 5 17z"/>
  <path d="M18.344 6.052a1.74 1.74 0 0 0-1.264 1.7c0 .95.785 1.756 1.712 1.756.433 0 .918-.206 1.227-.523a1.87 1.87 0 0 0 .513-1.247 1.78 1.78 0 0 0-1.364-1.71 2.2 2.2 0 0 0-.824.024m-4.604 5.04c.403-.317 2.472-1.001 2.811-1.092a4.2 4.2 0 0 1 1.131-.153c.568 0 .846.226 1.062.446.285.346.561.799-.037 2.532l-.039.098c-.02.048-.042.101-.073.2-.03.104-.13.423-.254.824v.002c-.077.244-.162.52-.247.795l-.412 1.32.769.79c.42.434.805.85.854.924.176.263.32.611.593 1.423.541 1.606.57 1.697.57 1.905 0 .181-.014.246-.078.372-.333.66-1.185.703-1.582.08-.04-.062-.32-.85-.622-1.75a14 14 0 0 0-.337-.937 63 63 0 0 0-1.35-1.416c-.728-.75-1.364-1.433-1.416-1.512a1.8 1.8 0 0 1-.15-.349c-.106-.357-.094-.477.222-1.899.156-.703.277-1.29.265-1.298a4 4 0 0 0-.566.335c-.02.031-.1.136-.21.282-.14.182-.328.43-.514.681-.24.279-.468.56-.62.749-.095.117-.16.197-.18.218-.288.302-.798.317-1.086.033a.78.78 0 0 1-.23-.718c.029-.153.411-.841.613-1.152.035-.054.112-.184.21-.35.287-.482.756-1.27.903-1.383"/>
  <path d="M20.311 12.705c-.22-.191-.66-.552-.677-.565-.132.505-.302 1.003-.423 1.359-.101.295-.169.493-.155.52.044.08 1.54 1.38 1.662 1.443a.97.97 0 0 0 .544.083c.205-.03.48-.216.603-.41a.9.9 0 0 0-.016-.969c-.074-.113-.313-.393-1.538-1.46m-4.173 5.996c0-.065 0-.162-.002-.253a2 2 0 0 1 .001-.23l-1.552-1.779c0 .246-.009.357-.027.592-.016.199-.039.486-.07 1.017-.017.311-.047.453-.292.82-.023.035-.404.375-.843.751-.464.396-.835.737-.887.811-.188.277-.201.638-.036.958.231.45.747.642 1.192.443.17-.078 1.673-1.58 1.924-1.86.354-.396.569-.706.592-1.27"/>
</svg>