<svg xmlns="http://www.w3.org/2000/svg" width="24" height="24" fill="currentColor" class="icon-chart-mixed-solid" viewBox="0 0 24 24">
  <path d="m21.531 5.476-6.25 5a1.236 1.236 0 0 1-1.562.04L9.5 7.35l-5.469 4.376a1.245 1.245 0 0 1-1.757-.196c-.43-.508-.352-1.328.195-1.758l6.25-5c.43-.351 1.055-.351 1.523 0l4.219 3.164 5.508-4.414c.508-.43 1.328-.312 1.758.196.43.547.312 1.328-.196 1.757M8.251 12c0-.664.546-1.25 1.25-1.25.663 0 1.25.586 1.25 1.25v7.5a1.26 1.26 0 0 1-1.25 1.25c-.704 0-1.25-.547-1.25-1.25zm-5 3.75c0-.664.546-1.25 1.25-1.25.663 0 1.25.586 1.25 1.25v3.75a1.26 1.26 0 0 1-1.25 1.25c-.704 0-1.25-.547-1.25-1.25zm11.25-2.5c.663 0 1.25.586 1.25 1.25v5a1.26 1.26 0 0 1-1.25 1.25c-.704 0-1.25-.547-1.25-1.25v-5c0-.664.546-1.25 1.25-1.25M18.25 12c0-.664.546-1.25 1.25-1.25.663 0 1.25.586 1.25 1.25v7.5a1.26 1.26 0 0 1-1.25 1.25c-.704 0-1.25-.547-1.25-1.25z"/>
</svg>