<svg xmlns="http://www.w3.org/2000/svg" width="24" height="24" fill="currentColor" class="icon-gear-solid" viewBox="0 0 24 24">
  <path d="M21.336 8.523c.156.352.039.704-.234.977l-1.68 1.523c.039.313.039.665.039.977 0 .352 0 .703-.04 1.016l1.68 1.523a.84.84 0 0 1 .235.977 8 8 0 0 1-.586 1.328l-.195.312c-.274.43-.547.86-.86 1.211-.234.313-.625.39-.976.274l-2.149-.664c-.547.39-1.133.703-1.719.976l-.507 2.227a.93.93 0 0 1-.703.703 11.7 11.7 0 0 1-3.32 0 .93.93 0 0 1-.704-.703l-.508-2.227a9.3 9.3 0 0 1-1.718-.976l-2.149.664c-.351.117-.742.039-.976-.235-.313-.39-.586-.82-.86-1.25l-.195-.312c-.235-.43-.43-.86-.586-1.328-.156-.352-.04-.703.234-.977l1.68-1.523c-.04-.313-.04-.664-.04-1.016 0-.312 0-.664.04-.977L2.859 9.5c-.273-.273-.39-.625-.234-.977.156-.468.351-.898.586-1.328l.195-.312c.274-.43.547-.86.86-1.25.234-.274.625-.352.976-.235l2.149.665c.546-.391 1.132-.743 1.718-.977l.508-2.227a.93.93 0 0 1 .703-.703C10.867 2.078 11.414 2 12 2c.547 0 1.094.078 1.64.156.352.04.625.352.704.703l.508 2.227c.624.234 1.171.586 1.718.976l2.149-.664c.351-.117.742-.039.976.235.313.39.586.82.86 1.25l.195.312c.234.43.43.86.625 1.328zM12 15.125c1.094 0 2.11-.586 2.695-1.562.547-.938.547-2.149 0-3.126C14.11 9.5 13.094 8.876 12 8.876c-1.133 0-2.149.625-2.734 1.563-.547.976-.547 2.187 0 3.124A3.16 3.16 0 0 0 12 15.126"/>
</svg>