<svg xmlns="http://www.w3.org/2000/svg" width="24" height="24" fill="currentColor" class="icon-home-outline" viewBox="0 0 24 24">
  <path d="m13.086 2.234 10.312 8.75c.391.352.43.938.118 1.329a.974.974 0 0 1-1.328.117l-.938-.82v7.265A3.11 3.11 0 0 1 18.125 22H6.875c-1.758 0-3.125-1.367-3.125-3.125v-7.266l-.976.82a.974.974 0 0 1-1.329-.117.974.974 0 0 1 .118-1.328l10.312-8.75a.996.996 0 0 1 1.211 0m-7.46 16.641c0 .703.546 1.25 1.25 1.25H8.75v-5.937c0-.86.664-1.563 1.563-1.563h4.375c.859 0 1.562.703 1.562 1.563v5.937h1.875c.664 0 1.25-.547 1.25-1.25v-8.867L12.5 4.188l-6.875 5.82zm5 1.25h3.75V14.5h-3.75z"/>
</svg>