<svg xmlns="http://www.w3.org/2000/svg" width="24" height="24" fill="currentColor" class="icon-search-solid" viewBox="0 0 24 24">
  <path d="M18.25 10.125a8.12 8.12 0 0 1-1.562 4.805l4.921 4.96c.508.47.508 1.29 0 1.758a1.205 1.205 0 0 1-1.757 0l-4.961-4.96c-1.328 1.015-3.008 1.562-4.766 1.562A8.12 8.12 0 0 1 2 10.125C2 5.672 5.633 2 10.125 2c4.453 0 8.125 3.672 8.125 8.125m-8.125 5.625a5.58 5.58 0 0 0 4.844-2.812c1.015-1.72 1.015-3.868 0-5.626C13.953 5.595 12.117 4.5 10.125 4.5c-2.031 0-3.867 1.094-4.883 2.813-1.015 1.757-1.015 3.906 0 5.625a5.6 5.6 0 0 0 4.883 2.812"/>
</svg>