<svg xmlns="http://www.w3.org/2000/svg" width="24" height="24" fill="currentColor" class="icon-search-outline" viewBox="0 0 24 24">
  <path d="M16.375 10.125c0-2.227-1.21-4.258-3.125-5.39-1.953-1.133-4.336-1.133-6.25 0-1.953 1.132-3.125 3.163-3.125 5.39A6.22 6.22 0 0 0 7 15.555c1.914 1.133 4.297 1.133 6.25 0 1.914-1.133 3.125-3.164 3.125-5.43m-1.21 6.406a8.2 8.2 0 0 1-5.04 1.719A8.12 8.12 0 0 1 2 10.125C2 5.672 5.633 2 10.125 2c4.453 0 8.125 3.672 8.125 8.125a8.25 8.25 0 0 1-1.758 5.078l5.235 5.195c.351.391.351.977 0 1.329-.391.39-.977.39-1.329 0z"/>
</svg>