<svg xmlns="http://www.w3.org/2000/svg" width="24" height="24" fill="currentColor" class="icon-store-outline" viewBox="0 0 24 24">
  <path d="m21.055 7.078-2.032-3.203H5.938L3.906 7.078c-.195.352-.234.82-.078 1.172s.43.586.781.625c.079 0 .157.04.235.04.469 0 .86-.235 1.133-.548q.585-.585 1.406-.586c.547 0 1.055.196 1.406.586.274.313.664.547 1.133.547s.898-.234 1.172-.547c.351-.39.86-.586 1.367-.586.547 0 1.055.196 1.406.586.274.313.703.547 1.172.547s.86-.234 1.133-.547c.351-.39.86-.586 1.406-.586.508 0 1.016.196 1.367.586.313.313.703.508 1.172.508h.235c.351-.04.625-.273.78-.625.157-.39.118-.82-.077-1.172m-.938 3.672c-.781 0-1.484-.234-2.031-.664a1.9 1.9 0 0 1-.508-.469 1.9 1.9 0 0 1-.508.469 3.4 3.4 0 0 1-2.03.664c-.782 0-1.485-.234-2.032-.664a2 2 0 0 1-.547-.469 1.9 1.9 0 0 1-.508.469c-.547.43-1.25.664-2.031.664a3.4 3.4 0 0 1-2.031-.664c-.196-.117-.352-.274-.508-.43-.156.156-.313.313-.508.43a3.4 3.4 0 0 1-2.031.664h-.469c-2.187-.312-3.203-2.852-2.031-4.687L4.57 2.547c.196-.352.547-.547.938-.547h13.945c.39 0 .742.195.938.547l2.226 3.516c1.172 1.835.156 4.375-2.031 4.687zM5.625 15.125h13.75v-3.164c.234.039.469.039.742.039.195 0 .43 0 .625-.04.195 0 .352-.038.508-.077V19.5c0 1.406-1.133 2.5-2.5 2.5H6.25a2.47 2.47 0 0 1-2.5-2.5v-7.617c.117.039.273.078.469.078.195.039.39.039.625.039.273 0 .508 0 .781-.04zM19.375 17H5.625v2.5c0 .352.273.625.625.625h12.5a.64.64 0 0 0 .625-.625z"/>
</svg>