<svg xmlns="http://www.w3.org/2000/svg" width="24" height="24" fill="currentColor" class="icon-trip-inbound-outline" viewBox="0 0 24 24">
  <path fill-rule="evenodd" d="M15 2a1 1 0 0 0-1 1v19h8v-4.5h-1a.5.5 0 0 1-.5-.5v-2a.5.5 0 0 1 .5-.5h1v-2h-1a.5.5 0 0 1-.5-.5v-2a.5.5 0 0 1 .5-.5h1v-2h-1a.5.5 0 0 1-.5-.5V5a.5.5 0 0 1 .5-.5h1V2zm2 2.5a.5.5 0 0 0-.5.5v2a.5.5 0 0 0 .5.5h1.5A.5.5 0 0 0 19 7V5a.5.5 0 0 0-.5-.5zm-.5 5.5a.5.5 0 0 1 .5-.5h1.5a.5.5 0 0 1 .5.5v2a.5.5 0 0 1-.5.5H17a.5.5 0 0 1-.5-.5zm.5 4.5a.5.5 0 0 0-.5.5v2a.5.5 0 0 0 .5.5h1.5a.5.5 0 0 0 .5-.5v-2a.5.5 0 0 0-.5-.5z"/>
  <path d="M8.344 6.052a1.74 1.74 0 0 0-1.264 1.7c0 .95.784 1.756 1.712 1.756.433 0 .919-.206 1.227-.523a1.87 1.87 0 0 0 .513-1.247 1.78 1.78 0 0 0-1.364-1.71 2.2 2.2 0 0 0-.824.024m-4.604 5.04c.403-.317 2.471-1.001 2.811-1.092a4.2 4.2 0 0 1 1.131-.153c.568 0 .846.226 1.062.446.285.346.561.799-.037 2.532l-.039.098c-.02.048-.042.101-.074.2l-.253.825-.247.796-.412 1.32.769.79c.42.434.805.85.854.924.176.263.32.611.593 1.423.542 1.606.57 1.697.57 1.905 0 .181-.014.246-.078.372-.333.66-1.185.703-1.582.08-.04-.062-.32-.85-.622-1.75a14 14 0 0 0-.337-.937 63 63 0 0 0-1.35-1.416c-.728-.75-1.364-1.433-1.416-1.512a1.8 1.8 0 0 1-.15-.349c-.106-.357-.094-.477.222-1.899.156-.703.277-1.29.265-1.298a4 4 0 0 0-.566.335c-.02.031-.1.136-.211.282-.139.182-.327.43-.513.681-.24.279-.468.56-.62.749-.095.117-.16.197-.18.218-.288.302-.798.317-1.086.033a.78.78 0 0 1-.23-.718c.029-.153.411-.841.613-1.152m1.113-1.733c-.147.113-.616.9-.902 1.383Z"/>
  <path d="M10.311 12.705c-.22-.191-.66-.552-.677-.565a19 19 0 0 1-.423 1.359c-.101.295-.169.493-.155.52.044.08 1.54 1.38 1.662 1.443a.97.97 0 0 0 .544.083c.205-.03.48-.216.603-.41a.9.9 0 0 0-.016-.969c-.074-.113-.313-.393-1.538-1.46m-4.173 5.996c0-.065 0-.162-.002-.253-.002-.12-.004-.227.001-.23L4.585 16.44c0 .246-.009.357-.027.592a42 42 0 0 0-.07 1.017c-.017.311-.047.453-.292.82-.023.035-.404.375-.843.751-.464.396-.835.737-.887.811-.188.277-.201.638-.036.958.231.45.747.642 1.192.443.17-.078 1.673-1.58 1.924-1.86.354-.396.569-.706.592-1.27"/>
</svg>