<svg xmlns="http://www.w3.org/2000/svg" width="24" height="24" fill="currentColor" class="icon-trip-outbound-alt-solid" viewBox="0 0 24 24">
  <path d="M20.333 2.833c.903 0 1.667.716 1.667 1.563v15.208c0 .879-.764 1.563-1.667 1.563h-2.5v-2.605c0-.846-.764-1.562-1.666-1.562-.938 0-1.667.716-1.667 1.562v2.605H12c-.937 0-1.667-.684-1.667-1.563v-1.689a3.21 3.21 0 0 0 .44-3.518h1.726a3.234 3.234 0 0 0 3.251-3.249c0-1.731-1.406-3.248-3.25-3.248h-1.71a3.21 3.21 0 0 0-.457-3.482v-.022c0-.847.73-1.563 1.667-1.563z"/>
  <path d="M13.667 11.148c0 .656-.511 1.165-1.168 1.165H6.004l2.664 2.694a1.12 1.12 0 0 1 0 1.638 1.127 1.127 0 0 1-1.642 0l-4.67-4.66a1.12 1.12 0 0 1 0-1.637l4.67-4.66a1.127 1.127 0 0 1 1.642 0 1.12 1.12 0 0 1 0 1.638L6.004 9.984H12.5q.062 0 .121.006a1.176 1.176 0 0 1 1.047 1.158"/>
</svg>