<svg width="512" height="408" viewBox="0 0 512 408" fill="none" xmlns="http://www.w3.org/2000/svg">
<rect width="408" height="408" transform="translate(52)" fill="#00A4CC"/>
<path d="M254.54 272.054L304.423 203.018L255.957 135.946L258.791 130.333H289.401L323.129 178.603L357.139 130.333H387.749L390.583 135.946L342.118 203.018L392 272.054L389.45 277.667H358.556L323.129 227.433L287.701 277.667H257.091L254.54 272.054Z" fill="white"/>
<path d="M120 233.327V174.674C120 145.114 134.927 130.333 164.781 130.333H218.348L233.369 141.278V158.958H166.198C157.506 158.958 153.161 163.261 153.161 171.867V236.133C153.161 244.739 157.506 249.042 166.198 249.042H233.369V266.722L218.348 277.667H164.781C134.927 277.667 120 262.887 120 233.327Z" fill="white"/>
</svg>
