<svg width="356" height="256" viewBox="0 0 356 256" fill="none" xmlns="http://www.w3.org/2000/svg">
<path d="M49.1129 211.214C28.6472 211.214 12 194.55 12 174.064L12 135.938C12 120.678 21.5603 106.743 35.7903 101.269L53.4373 94.4726C57.1876 93.0297 59.9701 89.8104 60.8575 85.8917L66.3865 61.5435C73.0117 32.3723 98.5085 11.9991 128.394 11.9991H280.218C315.28 11.9991 343.998 40.5513 343.998 75.6468V174.064C343.998 194.55 327.16 211.214 306.698 211.214L49.1129 211.214Z" fill="white"/>
<path d="M121.9 177.899C104.253 177.899 89.8984 192.257 89.8984 209.899C89.8984 227.541 104.253 241.899 121.9 241.899C139.543 241.899 153.898 227.541 153.898 209.899C153.898 192.257 139.543 177.899 121.9 177.899" fill="#FF5B14"/>
<path d="M261.9 177.899C244.253 177.899 229.898 192.257 229.898 209.899C229.898 227.541 244.253 241.899 261.9 241.899C279.543 241.899 293.898 227.541 293.898 209.899C293.898 192.257 279.543 177.899 261.9 177.899" fill="#FF5B14"/>
<path fill-rule="evenodd" clip-rule="evenodd" d="M0 174.065C0 201.167 22.0087 223.215 49.1129 223.215H77.9345C83.6264 242.157 101.228 256 122.003 256C142.773 256 160.374 242.157 166.066 223.215H217.934C223.626 242.157 241.228 256 262.003 256C282.773 256 300.374 242.157 306.066 223.215H306.698C333.719 223.215 355.998 201.247 355.998 174.065V75.6477C355.998 33.8882 321.87 0 280.218 0H128.394C92.8967 0 62.5488 24.2594 54.6845 58.8867L49.1538 83.2423C49.1532 83.2452 49.1523 83.2477 49.1516 83.2497L49.1501 83.2533C49.1501 83.2533 49.1466 83.2594 49.1435 83.263L49.1386 83.268L49.1359 83.2701C49.1359 83.2701 49.133 83.2721 49.1283 83.2739L49.1246 83.2753L31.4819 90.0701L31.4775 90.0717C12.6088 97.3324 0 115.723 0 135.939V174.065ZM240 210C240 206.084 241.029 202.404 242.83 199.215C246.609 192.526 253.786 188 262.001 188C270.215 188 277.392 192.526 281.17 199.215C282.971 202.404 284 206.084 284 210C284 214.955 282.353 219.532 279.578 223.215C275.56 228.546 269.176 232 262.001 232C254.825 232 248.441 228.546 244.422 223.215C241.647 219.532 240 214.955 240 210ZM262.003 164C283.651 164 301.856 179.038 306.723 199.215C320.614 199.201 331.998 187.847 331.998 174.065V75.6477C331.998 47.2163 308.689 24 280.218 24H128.394C104.12 24 83.4746 40.4873 78.0885 64.2021L72.5612 88.5428L72.5605 88.5459L72.5596 88.5499C70.7872 96.3658 65.2361 102.79 57.7501 105.672L57.7463 105.673L40.1031 112.468L40.0988 112.47C30.5098 116.159 24 125.636 24 135.939V174.065C24 187.935 35.2857 199.215 49.1129 199.215H77.2771C82.1438 179.038 100.349 164 122.003 164C143.651 164 161.856 179.038 166.723 199.215H217.277C222.144 179.038 240.349 164 262.003 164ZM102.83 199.215C101.029 202.404 100 206.084 100 210C100 214.955 101.647 219.532 104.422 223.215C108.441 228.546 114.825 232 122.001 232C129.176 232 135.56 228.546 139.578 223.215C142.353 219.532 144 214.955 144 210C144 206.084 142.971 202.404 141.17 199.215C137.392 192.526 130.215 188 122.001 188C113.786 188 106.609 192.526 102.83 199.215ZM144.002 60C152.835 60 160 67.166 160 76C160 84.8378 152.835 92 144.002 92C135.165 92 128 84.8378 128 76C128 67.166 135.165 60 144.002 60ZM220 76C220 67.1622 227.161 60 235.998 60C244.835 60 252 67.1622 252 76C252 84.8378 244.835 92 235.998 92C227.161 92 220 84.8378 220 76ZM231.487 109.077C225.861 106.374 219.213 108.933 216.624 114.794C211.838 125.628 201.383 132.624 190 132.624C178.613 132.624 168.162 125.628 163.376 114.794C160.783 108.933 154.131 106.378 148.513 109.073C142.895 111.776 140.442 118.72 143.031 124.581C151.464 143.667 169.9 156 190 156C210.096 156 228.532 143.667 236.969 124.581C239.558 118.72 237.105 111.776 231.487 109.077Z" fill="black"/>
</svg>
