<svg width="192" height="192" viewBox="0 0 192 192" fill="none" xmlns="http://www.w3.org/2000/svg">
<rect width="192" height="192" rx="48" fill="#FF5B14"/>
<path d="M47.6673 127.205C39.9927 127.205 33.75 120.956 33.75 113.274V98.9769C33.75 93.2541 37.3351 88.0287 42.6714 85.9759L49.289 83.4272C50.6953 82.8861 51.7388 81.6789 52.0716 80.2093L54.1449 71.0788C56.6294 60.1396 66.1907 52.4996 77.3977 52.4996L134.332 52.4996C147.48 52.4996 158.249 63.2067 158.249 76.3675V113.274C158.249 120.956 151.935 127.205 144.262 127.205L47.6673 127.205Z" fill="white"/>
<path d="M74.9626 114.712C68.345 114.712 62.9619 120.097 62.9619 126.712C62.9619 133.328 68.345 138.712 74.9626 138.712C81.5788 138.712 86.9619 133.328 86.9619 126.712C86.9619 120.097 81.5788 114.712 74.9626 114.712" fill="#FF5B14"/>
<path d="M127.463 114.712C120.845 114.712 115.462 120.097 115.462 126.712C115.462 133.328 120.845 138.712 127.463 138.712C134.079 138.712 139.462 133.328 139.462 126.712C139.462 120.097 134.079 114.712 127.463 114.712" fill="#FF5B14"/>
<path fill-rule="evenodd" clip-rule="evenodd" d="M29.25 113.274C29.25 123.438 37.5033 131.705 47.6673 131.705H58.4754C60.6099 138.809 67.2104 144 75.001 144C82.79 144 89.3902 138.809 91.5246 131.705H110.975C113.11 138.809 119.71 144 127.501 144C135.29 144 141.89 138.809 144.025 131.705H144.262C154.395 131.705 162.749 123.467 162.749 113.274V76.3679C162.749 60.7081 149.951 48 134.332 48H77.3977C64.0863 48 52.7058 57.0973 49.7567 70.0825L47.6827 79.2159C47.6822 79.2181 47.6813 79.22 47.6813 79.22C47.6813 79.22 47.68 79.2223 47.6788 79.2236L47.677 79.2255L47.676 79.2263C47.676 79.2263 47.6749 79.227 47.6731 79.2277L47.6717 79.2282L41.0557 81.7763L41.0541 81.7769C33.9783 84.4996 29.25 91.396 29.25 98.9773V113.274ZM119.25 126.75C119.25 125.282 119.636 123.901 120.311 122.705C121.728 120.197 124.42 118.5 127.5 118.5C130.581 118.5 133.272 120.197 134.689 122.705C135.364 123.901 135.75 125.282 135.75 126.75C135.75 128.608 135.132 130.325 134.092 131.705C132.585 133.705 130.191 135 127.5 135C124.809 135 122.415 133.705 120.908 131.705C119.868 130.325 119.25 128.608 119.25 126.75ZM127.501 109.5C135.619 109.5 142.446 115.139 144.271 122.705C149.48 122.7 153.749 118.443 153.749 113.274V76.3679C153.749 65.7061 145.008 57 134.332 57H77.3977C68.2951 57 60.553 63.1827 58.5332 72.0758L56.4605 81.2036L56.4602 81.2047L56.4598 81.2062C55.7952 84.1372 53.7135 86.5463 50.9063 87.6269L50.9049 87.6274L44.2887 90.1756L44.287 90.1762C40.6912 91.5595 38.25 95.1135 38.25 98.9773V113.274C38.25 118.476 42.4821 122.705 47.6673 122.705H58.2289C60.0539 115.139 66.881 109.5 75.001 109.5C83.1193 109.5 89.9461 115.139 91.7711 122.705H110.729C112.554 115.139 119.381 109.5 127.501 109.5ZM67.8113 122.705C67.1358 123.901 66.75 125.282 66.75 126.75C66.75 128.608 67.3676 130.325 68.4083 131.705C69.9152 133.705 72.3094 135 75.0005 135C77.691 135 80.085 133.705 81.5918 131.705C82.6324 130.325 83.25 128.608 83.25 126.75C83.25 125.282 82.8642 123.901 82.1887 122.705C80.7719 120.197 78.0806 118.5 75.0005 118.5C71.9198 118.5 69.2282 120.197 67.8113 122.705ZM83.2507 70.5C86.5633 70.5 89.25 73.1873 89.25 76.5C89.25 79.8142 86.5633 82.5 83.2507 82.5C79.9367 82.5 77.25 79.8142 77.25 76.5C77.25 73.1873 79.9367 70.5 83.2507 70.5ZM111.75 76.5C111.75 73.1858 114.435 70.5 117.749 70.5C121.063 70.5 123.75 73.1858 123.75 76.5C123.75 79.8142 121.063 82.5 117.749 82.5C114.435 82.5 111.75 79.8142 111.75 76.5ZM116.058 88.9039C113.948 87.8904 111.455 88.8499 110.484 91.0477C108.689 95.1106 104.769 97.7342 100.5 97.7342C96.2297 97.7342 92.3108 95.1106 90.5161 91.0477C89.5437 88.8499 87.0492 87.8919 84.9425 88.9024C82.8358 89.9158 81.9158 92.52 82.8868 94.7178C86.049 101.875 92.9625 106.5 100.5 106.5C108.036 106.5 114.949 101.875 118.113 94.7178C119.084 92.52 118.164 89.9158 116.058 88.9039Z" fill="#201424"/>
</svg>
